<svg width="200" height="111" viewBox="0 0 200 111" fill="none" xmlns="http://www.w3.org/2000/svg">
<path d="M125.149 19.1715C125.289 19.4465 125.391 19.5371 125.464 19.9754H130.222C132.959 19.9754 135.31 18.9918 137.235 17.4528C139.115 18.9918 141.509 19.9754 144.246 19.9754H149.932C154.935 19.9754 157.97 22.1676 159.382 24.7977H159.126C153.183 24.7977 150.404 28.4481 150.404 31.6118C150.404 34.2202 152.157 36.4729 155.449 36.4729C159.853 36.4729 162.375 32.7469 162.375 28.5988C162.375 28.129 162.333 27.6555 162.29 27.1846C169.003 28.8519 172.252 36.0339 175.459 43.1745C177.511 47.7062 179.521 52.1954 182.386 55.4875C179.521 58.8225 177.512 63.3106 175.459 67.8006C172.252 74.9408 169.002 82.1235 162.29 83.7908C162.333 83.3206 162.375 82.8508 162.375 82.3802C162.375 78.2325 159.853 74.5128 155.449 74.5128C152.156 74.5128 150.404 76.7522 150.404 79.3599C150.404 82.5244 153.183 86.1741 159.126 86.1741H159.382C157.97 88.8045 154.935 90.9963 149.932 90.9963H144.246C141.509 90.9963 139.115 91.9792 137.235 93.5189C135.31 91.9792 132.958 90.9963 130.222 90.9963H120.671C120.723 90.558 120.753 90.4957 120.753 90.229C120.753 88.744 119.931 87.4574 118.717 86.784C118.153 86.473 117.505 86.2969 116.814 86.2969C115.596 86.2969 114.504 86.8537 113.784 87.7244C113.059 86.8537 111.969 86.2991 110.749 86.2991C110.06 86.2991 109.414 86.4781 108.849 86.7895C107.634 87.4618 106.812 88.7543 106.812 90.2393C106.812 90.664 106.881 91.0722 107.007 91.454C107.682 94.492 113.784 98.383 113.784 98.383C113.784 98.383 117.961 95.8189 119.783 93.1885H130.223C132.318 93.1885 134.198 93.8556 135.738 95.0102C133.216 97.7466 131.804 101.393 131.804 104.473C131.804 107.935 133.472 110.656 137.234 110.656C140.996 110.656 142.663 107.913 142.663 104.45C142.663 101.371 141.253 97.7503 138.731 95.0139C140.27 93.8597 142.107 93.1881 144.246 93.1881H149.933C156.559 93.1881 160.322 89.8359 161.733 86.0736C169.942 84.6626 173.791 76.4665 177.339 68.6848C179.221 64.5375 181.23 60.247 183.924 57.0829C186.446 59.3488 189.568 60.7524 193.673 60.7524C197.863 60.7524 200 58.2262 200 55.5748C200 52.9235 197.863 50.2281 193.673 50.2281C189.568 50.2281 186.446 51.639 183.924 53.9049C181.23 50.7841 179.263 46.5076 177.339 42.3177C173.833 34.5357 169.943 26.3091 161.733 24.8985C160.322 21.1355 156.56 17.7836 149.933 17.7836H144.246C142.107 17.7836 140.27 17.1172 138.731 15.963C141.253 13.2266 142.663 9.57908 142.663 6.50044C142.663 3.03708 140.996 0.315674 137.234 0.315674C133.472 0.315674 131.804 3.05945 131.804 6.52282C131.804 9.60108 133.216 13.2225 135.738 15.959C134.198 17.1132 132.318 17.7836 130.223 17.7836H124.421C124.463 17.7836 124.506 17.9897 124.55 18.0598C124.737 18.3661 124.951 18.7779 125.149 19.1715Z" fill="black"/>
<path d="M6.32745 60.7449C10.4323 60.7449 13.5539 59.3339 16.0761 57.068C18.77 60.2318 20.7795 64.5071 22.6607 68.6549C26.2095 76.4358 30.0572 84.6628 38.2669 86.073C39.6779 89.8364 43.4405 93.1882 50.0677 93.1882H55.7547C57.8926 93.1882 59.7305 93.8554 61.2702 95.01C58.7475 97.7464 57.3366 101.393 57.3366 104.473C57.3366 107.935 59.0039 110.656 62.7662 110.656C66.5289 110.656 68.1962 107.912 68.1962 104.45C68.1962 101.37 66.7852 97.7501 64.2626 95.0136C65.8023 93.8594 67.6827 93.1879 69.7784 93.1879H79.8982C81.7211 95.8183 85.9015 98.382 85.9015 98.382C85.9015 98.382 91.999 94.5211 92.676 91.4828C92.8014 91.1013 92.8711 90.6781 92.8711 90.2534C92.8711 88.7683 92.0488 87.4616 90.8348 86.7885C90.2704 86.4779 89.623 86.2989 88.9324 86.2989C87.7137 86.2989 86.6222 86.8546 85.9018 87.7253C85.1775 86.8546 84.0874 86.2989 82.8672 86.2989C82.1781 86.2989 81.5318 86.4779 80.9663 86.7885C79.7523 87.4612 78.93 88.743 78.93 90.2284C78.93 90.4954 78.9604 90.5571 79.0114 90.9957H69.7777C67.0412 90.9957 64.6892 91.9786 62.7655 93.5183C60.8851 91.9786 58.4904 90.9957 55.7544 90.9957H50.0673C45.065 90.9957 42.0296 88.8036 40.619 86.1735H40.8746C46.8181 86.1735 49.5971 82.5238 49.5971 79.3593C49.5971 76.752 47.8443 74.4986 44.5522 74.4986C40.1485 74.4986 37.6258 78.2253 37.6258 82.3727C37.6258 82.8429 37.6684 83.316 37.7109 83.7869C30.9976 82.1196 27.7492 74.938 24.5422 67.7978C22.4894 63.3078 20.4799 58.8197 17.6151 55.4851C20.4802 52.1926 22.4897 47.7034 24.5422 43.1716C27.7492 36.0315 30.9976 28.8476 37.7109 27.1803C37.6684 27.6509 37.6258 28.1214 37.6258 28.5912C37.6258 32.7394 40.1485 36.4587 44.5522 36.4587C47.8447 36.4587 49.5971 34.22 49.5971 31.6112C49.5971 28.4478 46.8181 24.7971 40.8746 24.7971H40.619C42.0296 22.1666 45.0653 19.9748 50.0673 19.9748H55.7544C58.4908 19.9748 60.8854 18.9911 62.7655 17.4522C64.6899 18.9911 67.0412 19.9748 69.7777 19.9748H79.0132C79.4438 19.5365 80.1242 18.8811 80.5624 18.5382V17.7827H69.7777C67.6823 17.7827 65.8019 17.1162 64.2622 15.962C66.7849 13.2256 68.1954 9.5781 68.1954 6.49947C68.1954 3.0361 66.5285 0.314697 62.7655 0.314697C59.0036 0.314697 57.3359 3.05847 57.3359 6.52184C57.3359 9.60011 58.7468 13.2216 61.2691 15.958C59.7294 17.1122 57.8919 17.7827 55.7536 17.7827H50.0673C43.4405 17.7827 39.6775 21.1345 38.2669 24.8975C30.058 26.3081 26.1673 34.5046 22.6607 42.287C20.7366 46.4766 18.77 50.7674 16.0765 53.8882C13.5539 51.6227 10.4319 50.218 6.32782 50.218C2.13825 50.2191 0 52.9163 0 55.568C0 58.2186 2.13788 60.7449 6.32745 60.7449Z" fill="black"/>
<path d="M100.2 19.578C100.209 19.5717 100.218 19.5655 100.227 19.5596C100.427 19.4188 100.582 19.1877 100.752 19.0135C101.394 18.3519 102.111 17.7056 102.907 17.2343C103.609 16.8188 104.461 16.62 105.222 16.3079C106.861 15.6356 108.472 14.7444 109.567 13.3133C110.352 12.2856 110.818 11.0488 111.162 9.80148C111.339 9.1556 111.489 8.47305 111.333 7.82168C111.216 7.33058 110.371 6.35791 109.696 6.35791C109.528 6.35791 109.371 6.41769 109.238 6.55963C108.808 7.01772 109.386 8.05714 109.383 8.58822C109.378 9.6368 109.039 10.6791 108.497 11.5711C107.64 12.9832 106.331 14.0593 104.987 15.0195C103.975 15.7427 102.927 16.4172 101.961 17.2028C101.127 17.8824 100.043 18.6292 99.8141 19.7566C99.8273 19.6953 100.142 19.6154 100.2 19.578Z" fill="black"/>
<path d="M108.059 6.24998C108.056 6.24888 108.056 6.24778 108.053 6.24741C107.923 6.23714 107.793 6.23384 107.662 6.23384C107.51 6.23384 107.357 6.23788 107.204 6.23788C107.087 6.23788 106.969 6.23568 106.851 6.22761C106.374 6.1957 105.902 6.12235 105.424 6.10694C105.354 6.10474 105.282 6.10327 105.211 6.10327C103.921 6.10327 102.399 6.47077 101.351 7.20797C101.051 7.42033 100.792 7.71227 100.689 8.0662C100.556 8.52649 100.71 9.04143 101.022 9.40527C101.569 10.0412 102.467 10.2221 103.294 10.2221C103.461 10.2221 103.625 10.2147 103.783 10.2022C104.068 10.1799 104.373 10.1208 104.57 9.91434C104.792 9.68107 104.813 9.2923 104.644 9.01796C104.48 8.75352 104.166 8.60058 103.854 8.60058C103.843 8.60058 103.831 8.60058 103.819 8.60095C103.292 8.62076 103.001 8.99669 102.696 9.36859C102.636 9.18741 102.678 8.98422 102.772 8.81844C102.868 8.65303 103.011 8.52099 103.163 8.40583C103.565 8.10215 104.039 7.89749 104.536 7.81424C104.65 7.79517 104.766 7.78343 104.883 7.78343C105.117 7.78343 105.345 7.83147 105.535 7.96498C105.748 8.11462 105.879 8.36768 105.891 8.62809C105.905 8.95341 105.662 9.28166 105.503 9.54574C105.502 9.54794 105.475 9.55454 105.475 9.55527C105.46 9.68767 105.489 9.74233 105.607 9.74233C105.624 9.74233 105.551 9.7636 105.551 9.76176V9.80504C105.551 9.80504 105.772 9.8905 105.775 9.8905H105.775C105.776 9.8905 105.989 9.80247 105.989 9.80247V9.71555C106.427 9.54207 107.058 9.30477 107.643 9.09351C108.031 8.95341 108.874 8.82651 108.535 8.18907C108.471 8.06841 108.377 7.96681 108.298 7.85531C108.136 7.62535 108.044 7.34771 108.027 7.06676C108.021 6.97397 108.065 6.8115 108.095 6.65379C108.127 6.48324 108.143 6.31637 108.059 6.24998Z" fill="black"/>
<path d="M88.2682 13.1837C88.3269 13.2185 88.3937 13.2512 88.4612 13.2629C89.0454 13.3696 89.6352 13.4522 90.2161 13.5776C90.7413 13.692 91.26 13.842 91.7753 13.995C92.1354 14.1028 92.4861 14.2436 92.888 14.386C92.8836 14.2374 92.8939 14.1692 92.8781 14.1079C92.4585 12.4821 91.9223 10.8745 91.6927 9.20575C91.6319 8.7638 91.5985 8.287 91.8163 7.8975C92.0687 7.44601 92.6108 7.22779 93.1334 7.22779C93.1833 7.22779 93.2332 7.22999 93.2827 7.23402C93.8306 7.2784 94.2755 7.69431 94.8102 7.72255C94.8286 7.72329 94.8473 7.72365 94.8656 7.72365C95.3853 7.72365 95.8874 7.34442 96.1772 6.94207C96.5806 6.38202 96.7636 5.69397 97.1091 5.09651C97.5548 4.3263 98.2898 3.74278 99.1205 3.43506C99.5203 3.28689 99.8588 3.23407 100.18 3.23407C100.71 3.23407 101.195 3.37785 101.837 3.48091C101.955 3.49961 102.075 3.51025 102.196 3.51025C102.487 3.51025 102.778 3.449 103.027 3.30009C104.524 2.40592 102.763 1.52751 101.985 1.16001C101.188 0.78371 100.304 0.609863 99.4205 0.609863C98.8549 0.609863 98.2894 0.681018 97.7462 0.815254C95.8816 1.27628 94.2473 2.40849 92.8275 3.70244C91.4074 4.99712 90.1604 6.46858 88.7645 7.7893C88.2422 8.28334 87.6921 8.76453 87.3128 9.3752C86.5177 10.6541 86.9787 12.4062 88.2682 13.1837Z" fill="black"/>
<path d="M89.3788 16.2246C90.4439 16.5565 91.4943 16.9475 92.4868 17.4595C92.9867 17.7177 93.4712 18.0063 93.93 18.3313C94.3793 18.65 94.7002 19.045 95.082 19.4382C95.1539 19.5123 95.3069 19.5952 95.18 19.6718C95.1774 19.6737 95.173 19.6744 95.1682 19.6744C95.0538 19.6744 94.3922 19.2482 94.2946 19.1983C93.9843 19.0395 93.6707 18.887 93.3542 18.7402C92.7215 18.4468 92.0779 18.1776 91.4239 17.9341C90.1648 17.4635 88.8833 17.1279 87.5791 16.8221C87.344 16.7667 86.8463 16.7399 86.6615 16.5664C86.6673 16.6317 86.6662 16.6695 86.6747 16.6985C86.6761 16.7029 86.678 16.7073 86.6798 16.712C87.1804 17.9506 87.9499 19.0938 88.6878 20.1967C89.41 21.2764 90.1912 22.3162 91.0267 23.3105C91.8794 24.3257 92.7879 25.2925 93.7474 26.2065C94.2322 26.6683 94.73 27.1161 95.2398 27.5496C95.7265 27.9637 96.2322 28.2978 96.7424 28.6704C97.8038 29.4458 98.9797 30.0183 100.217 30.4573C100.961 30.7221 101.82 30.8549 102.708 30.8549C105.05 30.8549 107.597 29.9295 108.792 28.0638C109.157 27.4938 109.621 25.7843 108.928 25.2173C108.844 25.1487 108.744 25.097 108.625 25.0659C103.119 23.6252 98.9195 20.2909 94.5462 16.7909C94.0184 16.4241 93.4771 16.0772 92.9181 15.7562C91.7335 15.0763 90.4612 14.532 89.125 14.2356C88.4036 14.075 87.6686 13.9705 86.9347 13.9705C86.3779 13.9705 85.8216 14.031 85.2718 14.1729C84.8122 14.2917 84.5166 14.4172 84.1913 14.7509C84.9835 15.1023 85.9188 15.2633 86.7564 15.4874C87.6345 15.7218 88.5125 15.9539 89.3788 16.2246ZM84.3472 14.7979C84.3413 14.7938 84.3365 14.7909 84.3307 14.7869C84.3622 14.796 84.3956 14.8019 84.4275 14.8045C84.4011 14.8019 84.3736 14.7997 84.3472 14.7979Z" fill="black"/>
<path d="M100.799 20.6495C102.162 21.5111 103.573 22.2927 104.991 23.0684C105.46 23.3244 105.984 23.5345 106.511 23.6192C106.673 23.6449 106.835 23.6589 106.995 23.6589C107.337 23.6589 107.672 23.595 107.986 23.4447C108.628 23.1373 109.066 22.5204 109.39 21.8859C109.904 20.8769 110.191 19.7557 110.243 18.625C110.281 17.817 110.328 16.0532 109.672 15.4426C109.579 15.3556 109.504 15.3208 109.433 15.3208C109.284 15.3208 109.155 15.4752 108.923 15.6197C107.645 16.416 106.174 16.8212 104.773 17.3369C104.187 17.5537 99.5782 19.883 100.799 20.6495Z" fill="black"/>
<path d="M97.0152 7.91047C96.8443 8.08689 96.6338 8.30622 96.3826 8.56625C97.707 9.02508 98.8718 9.65738 100.293 9.98857C100.169 9.59906 100.1 9.33609 100.002 9.08339C99.7117 8.32822 99.6585 7.59469 100.271 6.97486C100.546 6.69611 100.873 6.43571 101.224 6.27287C101.947 5.94021 102.703 5.67834 103.496 5.36769C103.359 5.28443 103.239 5.19971 103.111 5.13442C102.36 4.75299 101.534 4.78416 100.728 4.72511C100.629 4.71815 100.528 4.71411 100.43 4.71411C99.5749 4.71411 98.7801 4.99065 98.2252 5.6479C97.5214 6.48229 97.2694 6.71482 98.099 7.59873C98.3932 7.91011 98.7368 8.17565 99.057 8.46246C99.0464 8.48446 99.035 8.50647 99.0236 8.52774C98.3638 8.32455 97.7051 8.12136 97.0152 7.91047Z" fill="black"/>
<path d="M81.7094 22.8869C81.7101 22.888 81.7116 22.888 81.7123 22.8891C81.7857 22.9515 81.8616 23.0072 81.9416 23.056C82.4015 23.3373 82.864 23.6179 83.329 23.8911C83.3312 23.8922 83.332 23.8922 83.3331 23.8937C83.3686 23.9102 83.4035 23.9289 83.4391 23.9454C84.2705 24.3496 85.0979 24.7677 85.8913 25.2405C85.9004 25.2456 85.9096 25.2504 85.9188 25.2559C86.8052 25.7532 87.7079 26.2296 88.3589 27.0563C88.4238 27.1381 88.4861 27.2192 88.5507 27.3013C88.5514 27.3028 88.55 27.305 88.5514 27.3061C89.5769 28.3807 90.401 29.6226 91.3396 30.7926C92.1377 31.7858 93.1543 32.2281 94.3122 32.2281C94.548 32.2281 94.734 32.2097 94.9783 32.1742C96.2044 31.9952 97.221 31.6229 98.5363 31.3368C98.5363 31.298 98.5363 31.2602 98.5363 31.2213C97.6593 30.7955 96.9042 30.4141 96.0965 29.9307C94.0129 28.6829 92.1934 27.1715 90.5837 25.3479C89.8597 24.5282 89.1962 23.6557 88.6009 22.7391C87.998 21.8116 87.5256 20.8228 86.9824 19.8622C86.8533 19.6337 86.7213 19.3638 86.4245 19.3638C86.3809 19.3638 86.3347 19.3693 86.2837 19.3821C85.1302 19.6634 83.9837 19.9653 82.9483 20.5726C82.3762 20.9075 81.807 21.231 81.4486 21.8277C81.4472 21.8284 81.4472 21.8299 81.4472 21.831C81.3709 22.0272 81.3507 22.2399 81.4134 22.4398C81.4692 22.6111 81.5803 22.7586 81.7094 22.8869Z" fill="black"/>
<path d="M105.197 4.46818C105.733 4.52943 106.412 4.55217 106.816 4.55217C106.986 4.55217 107.108 4.54813 107.149 4.54153C108.118 4.38712 108.956 3.89529 109.951 3.81753C110.118 3.80433 110.285 3.79773 110.452 3.79773C111.44 3.79773 112.411 4.03576 113.235 4.61855C114.086 5.22152 114.919 5.85418 115.756 6.47879C115.837 6.5393 115.888 6.6387 116.034 6.82024C115.637 6.71498 115.347 6.67647 115.089 6.56131C114.304 6.20958 113.552 5.76836 112.743 5.48155C112.245 5.3055 111.689 5.36492 111.17 5.33191C111.2 5.59928 111.348 5.71408 111.518 5.92094C111.715 6.16117 111.887 6.42194 112.032 6.69701C112.32 7.24716 112.498 7.85709 112.542 8.47692C112.588 9.13674 112.483 9.80645 112.245 10.4234C111.996 11.0711 111.569 11.626 111.256 12.2418C111.018 12.7127 110.773 13.1836 110.577 13.6722C110.223 14.5495 110.469 15.3978 110.781 16.2296C110.838 16.3815 110.914 16.5322 110.986 16.6903C111.278 16.0275 111.503 15.4018 111.908 14.7893C112.312 14.1779 112.778 13.6315 113.225 13.052C113.961 12.0969 114.666 11.1033 114.883 9.91685C114.967 9.45656 115.101 9.01424 115.668 9.01424C115.675 9.01424 115.683 9.01424 115.691 9.01424C115.81 9.45253 116.016 9.9792 115.973 10.5205C115.973 10.5253 116.073 10.5253 116.073 10.5231C116.073 11.7914 114.802 12.7002 114.079 13.6003C113.264 14.617 112.498 15.7191 111.956 16.9067C111.88 17.0728 111.783 17.2404 111.715 17.4095C111.43 18.1119 111.197 18.8384 111.009 19.572C110.914 19.9468 110.82 20.3235 110.737 20.7012C110.667 21.0177 110.472 21.4912 110.516 21.8056C110.622 21.7931 110.719 21.5943 110.77 21.5C111.1 20.8872 111.389 20.2479 111.761 19.6607C112.6 18.3327 113.449 17.0108 114.298 15.6901C115.134 14.3903 116.178 13.2673 117.128 12.0536C118.105 10.8066 118.966 9.38687 119.116 7.81015C119.264 6.23379 118.527 4.48578 117.067 3.87328C115.067 3.03412 112.845 2.37908 110.7 2.05559C110.022 1.95363 109.243 1.86157 108.465 1.86157C106.708 1.86157 104.959 2.32957 104.406 4.20337C104.369 4.33064 104.728 4.41426 105.197 4.46818ZM116.074 10.504C116.074 10.5088 116.073 10.5132 116.073 10.5176C116.073 10.5073 116.073 10.4916 116.074 10.504Z" fill="black"/>
<path d="M116.166 15.3648C115.654 15.6296 115.312 16.1369 114.993 16.617C114.553 17.2764 110.231 24.2105 109.691 24.2105C109.683 24.2105 109.674 24.2105 109.667 24.2061C110.986 24.9957 110.989 26.1852 110.454 27.5059C110.561 27.5004 110.602 27.5063 110.638 27.4949C112.249 26.9942 113.507 25.9116 114.845 24.9572C115.558 24.4482 116.278 23.9457 117.025 23.4916C118.541 22.5733 120.19 21.9813 121.917 21.598C122.535 21.4612 122.702 21.13 122.413 20.5612C122.31 20.358 122.193 19.9754 122.075 19.9754C121.936 19.5372 121.793 19.4458 121.658 19.2126C121.365 18.7064 120.997 18.2219 120.6 17.7837C120.267 17.3454 119.915 17.166 119.561 16.8359C118.945 16.2623 117.717 15.2236 116.71 15.2236C116.519 15.2236 116.336 15.2764 116.166 15.3648Z" fill="black"/>
<path d="M118.735 5.42337C118.731 5.41017 118.727 5.39806 118.724 5.38486C118.524 4.84461 118.207 4.36525 117.705 4.0546C117.518 3.93943 117.32 3.85031 117.117 3.75789C117.067 3.74395 117.017 3.73075 116.966 3.71901C116.948 3.71571 116.931 3.71094 116.915 3.70728C117.189 3.8052 117.456 3.92257 117.703 4.07551C118.215 4.39129 118.536 4.87139 118.735 5.42337Z" fill="black"/>
<path d="M96.4434 15.9339C96.3418 16.2841 96.2747 16.5944 96.6573 16.8992C97.2859 17.4009 97.8588 17.976 98.4287 18.5478C98.6209 18.7403 98.7376 18.8335 98.8546 18.8335C98.9752 18.8335 99.0963 18.7352 99.3013 18.5456C99.9362 17.9588 100.603 17.4009 101.295 16.883C102.129 16.2595 103.029 15.7226 103.853 15.0859C104.517 14.5754 105.117 13.9808 105.731 13.4087C106.724 12.4811 107.575 11.4369 108.224 10.2387C108.37 9.97061 108.388 9.65519 108.439 9.35921C108.398 9.59981 107.067 10.0341 106.835 10.1235C106.251 10.3509 105.649 10.5321 105.038 10.6693C104.1 10.8787 103.139 10.9825 102.179 10.9825C101.883 10.9825 101.588 10.9726 101.292 10.9532C98.6734 10.7786 96.6503 9.79016 94.5065 8.40928C94.3463 8.30622 94.1497 8.25781 93.9513 8.25781C93.5779 8.25781 93.1994 8.42873 93.0549 8.72361C92.8308 9.1817 92.7332 9.67646 92.8554 10.1837C93.0189 10.8593 93.2009 11.5283 93.3736 12.2005C93.5966 13.0756 93.8156 13.9522 94.0419 14.8266C94.0617 14.9029 94.0987 14.9957 94.1589 15.0382C94.6694 15.3973 95.1865 15.7472 95.7506 16.1334C96.3473 14.2379 95.6351 12.6623 94.7813 11.0962C95.2999 11.485 95.777 11.8881 96.2204 12.3263C96.8289 12.9293 97.0622 13.6782 96.8847 14.5156C96.7812 14.9971 96.5802 15.4585 96.4434 15.9339ZM94.4878 9.51068C94.7534 9.64125 95.0468 9.73514 95.2782 9.91046C96.508 10.8406 97.8034 11.6196 99.2742 12.1334C100.469 12.5523 101.682 12.7067 102.918 12.7067C103.049 12.7067 103.181 12.7048 103.313 12.7012C103.886 12.6869 104.458 12.5724 105.111 12.4925C104.74 13.2224 104.117 13.5286 103.524 13.7043C102.853 13.9042 102.126 14.0747 101.428 14.0747C101.285 14.0747 101.142 14.0678 101.001 14.052C99.6061 13.8968 98.3022 13.4219 97.2925 12.2992C96.4225 11.3313 95.4264 10.4764 94.4878 9.51068Z" fill="black"/>
<path d="M104.776 86.7892C104.211 86.4785 103.563 86.2996 102.874 86.2996C101.654 86.2996 100.563 86.8552 99.8426 87.7259C99.1182 86.8552 98.0282 86.2996 96.808 86.2996C96.1188 86.2996 95.4726 86.4785 94.907 86.7892C93.693 87.4618 92.8707 88.7536 92.8707 90.239C92.8707 90.6637 92.9397 91.0719 93.0655 91.4537C93.7411 94.4916 99.8426 98.3229 99.8426 98.3229C99.8426 98.3229 105.94 94.492 106.617 91.4537C106.743 91.0723 106.812 90.6637 106.812 90.239C106.812 88.754 105.99 87.4629 104.776 86.7892Z" fill="black"/>
<path d="M45.6716 63.0317L45.6941 47.0318L55.2878 47.0452L55.2854 48.764L47.6291 48.7532L47.6216 54.1595L54.5591 54.1692L54.5567 55.8879L47.6192 55.8782L47.6091 63.0345L45.6716 63.0317ZM60.1999 47.0521L60.1775 63.0521L58.3337 63.0495L58.3562 47.0495L60.1999 47.0521ZM68.4291 63.3136C67.3457 63.3121 66.3956 63.053 65.5786 62.5362C64.7668 62.0194 64.1324 61.2972 63.6754 60.3695C63.2236 59.4418 62.9985 58.3581 63.0002 57.1185C63.002 55.8685 63.2301 54.7777 63.6845 53.846C64.1442 52.9144 64.7806 52.1913 65.5938 51.6768C66.4122 51.1624 67.3631 50.9059 68.4465 50.9074C69.5298 50.9089 70.4773 51.1681 71.2891 51.6848C72.1061 52.2016 72.7405 52.9264 73.1923 53.8594C73.6494 54.7923 73.877 55.8838 73.8752 57.1338C73.8735 58.3733 73.6428 59.4564 73.1832 60.3828C72.7288 61.3092 72.0923 62.0297 71.2739 62.5442C70.4607 63.0587 69.5124 63.3152 68.4291 63.3136ZM68.4314 61.6574C69.2543 61.6585 69.9317 61.4486 70.4635 61.0274C70.9954 60.6063 71.3894 60.0522 71.6455 59.365C71.9017 58.6779 72.0304 57.9333 72.0315 57.1312C72.0326 56.3291 71.9061 55.5815 71.6518 54.8885C71.3976 54.1954 71.0051 53.6349 70.4745 53.2071C69.9438 52.7793 69.2671 52.5648 68.4441 52.5636C67.6212 52.5625 66.9438 52.7751 66.412 53.2014C65.8801 53.6278 65.4861 54.1871 65.23 54.8795C64.9738 55.5718 64.8451 56.319 64.844 57.1211C64.8429 57.9232 64.9694 58.6682 65.2237 59.356C65.4779 60.0439 65.8704 60.5991 66.401 61.0217C66.9317 61.4443 67.6085 61.6562 68.4314 61.6574ZM78.9919 63.0784L75.3525 51.0733L77.29 51.076L79.8709 60.2672L79.9959 60.2673L82.5712 51.0834L84.54 51.0862L87.0584 60.246L87.1834 60.2462L89.79 51.0936L91.7275 51.0963L88.0544 63.0911L86.2419 63.0886L83.6298 53.8662L83.4423 53.8659L80.8044 63.081L78.9919 63.0784ZM98.7708 63.3562C97.6146 63.3545 96.6176 63.0979 95.7797 62.5863C94.9471 62.0695 94.3049 61.3499 93.8531 60.4274C93.4064 59.4997 93.184 58.4212 93.1857 57.1921C93.1874 55.9629 93.4129 54.8799 93.8622 53.943C94.3166 53.0009 94.9478 52.2675 95.7559 51.7425C96.5691 51.2124 97.5174 50.9481 98.6007 50.9497C99.2257 50.9505 99.8428 51.0556 100.452 51.2648C101.061 51.4739 101.615 51.8133 102.114 52.2827C102.614 52.747 103.011 53.3621 103.307 54.1281C103.603 54.8942 103.75 55.8371 103.749 56.9569L103.747 57.7381L94.4975 57.7252L94.4997 56.1314L101.875 56.1418C101.876 55.4647 101.741 54.8603 101.471 54.3287C101.206 53.7971 100.826 53.3773 100.332 53.0693C99.843 52.7613 99.2651 52.6068 98.5984 52.6059C97.864 52.6049 97.2284 52.7863 96.6914 53.1501C96.1596 53.5087 95.7501 53.9769 95.4629 54.5546C95.1756 55.1324 95.0315 55.752 95.0306 56.4134L95.0291 57.4759C95.0278 58.3822 95.183 59.1506 95.4946 59.7813C95.8114 60.4067 96.2509 60.8839 96.8129 61.2128C97.375 61.5365 98.0284 61.6989 98.7732 61.6999C99.2575 61.7006 99.6951 61.6335 100.086 61.4986C100.482 61.3586 100.823 61.1507 101.11 60.8751C101.397 60.5942 101.619 60.2456 101.776 59.8291L103.556 60.3316C103.368 60.9355 103.052 61.4663 102.609 61.924C102.165 62.3765 101.618 62.7299 100.967 62.9842C100.315 63.2333 99.5833 63.3573 98.7708 63.3562ZM106.545 63.1171L106.561 51.1171L108.343 51.1196L108.34 52.9321L108.465 52.9322C108.685 52.3388 109.081 51.8576 109.655 51.4886C110.228 51.1196 110.874 50.9356 111.593 50.9366C111.728 50.9368 111.898 50.9396 112.101 50.9451C112.304 50.9506 112.457 50.9587 112.562 50.9692L112.559 52.8442C112.497 52.8285 112.353 52.8049 112.129 52.7733C111.911 52.7365 111.679 52.718 111.434 52.7176C110.851 52.7168 110.33 52.8385 109.871 53.0826C109.418 53.3216 109.058 53.6544 108.792 54.0811C108.531 54.5026 108.4 54.9842 108.399 55.5259L108.388 63.1196L106.545 63.1171ZM123.243 53.8279L121.586 54.2944C121.483 54.0182 121.329 53.7497 121.126 53.489C120.929 53.2231 120.658 53.004 120.315 52.8317C119.971 52.6593 119.531 52.5727 118.995 52.572C118.261 52.571 117.648 52.7394 117.158 53.0772C116.673 53.4099 116.431 53.834 116.43 54.3496C116.429 54.808 116.595 55.1702 116.928 55.4363C117.261 55.7024 117.782 55.9245 118.49 56.1025L120.271 56.5425C121.343 56.8045 122.142 57.204 122.667 57.7412C123.193 58.2732 123.455 58.9585 123.454 59.797C123.453 60.4845 123.254 61.0988 122.857 61.6399C122.466 62.181 121.918 62.6073 121.215 62.9189C120.511 63.2304 119.693 63.3855 118.761 63.3842C117.537 63.3825 116.524 63.1154 115.723 62.583C114.922 62.0507 114.415 61.2739 114.203 60.2528L115.954 59.8177C116.119 60.4638 116.434 60.9486 116.897 61.2722C117.365 61.5958 117.977 61.7581 118.732 61.7591C119.591 61.7603 120.274 61.579 120.78 61.2151C121.291 60.8461 121.546 60.4037 121.547 59.8881C121.548 59.4714 121.402 59.1222 121.111 58.8406C120.82 58.5537 120.372 58.3396 119.768 58.1981L117.769 57.7265C116.67 57.4646 115.864 57.0598 115.349 56.5122C114.839 55.9594 114.585 55.2689 114.586 54.4408C114.587 53.7637 114.778 53.165 115.159 52.6447C115.545 52.1244 116.069 51.7163 116.731 51.4204C117.398 51.1244 118.153 50.9771 118.997 50.9782C120.185 50.9799 121.117 51.2416 121.793 51.7634C122.475 52.2852 122.958 52.9734 123.243 53.8279ZM128.078 55.9285L128.068 63.1472L126.224 63.1446L126.247 47.1446L128.09 47.1472L128.082 53.0222L128.238 53.0224C128.521 52.403 128.943 51.9115 129.506 51.5477C130.074 51.1787 130.83 50.9948 131.773 50.9961C132.59 50.9973 133.306 51.1624 133.92 51.4913C134.534 51.8151 135.01 52.3132 135.348 52.9855C135.691 53.6527 135.861 54.5019 135.86 55.5331L135.849 63.1581L134.006 63.1555L134.016 55.6555C134.017 54.7024 133.771 53.9651 133.277 53.4436C132.788 52.9168 132.109 52.6529 131.239 52.6517C130.635 52.6508 130.093 52.7776 129.613 53.0322C129.139 53.2867 128.764 53.6586 128.487 54.1478C128.215 54.637 128.079 55.2306 128.078 55.9285ZM144.097 63.4197C143.014 63.4182 142.063 63.159 141.246 62.6422C140.435 62.1255 139.8 61.4032 139.343 60.4755C138.891 59.5478 138.666 58.4642 138.668 57.2246C138.67 55.9746 138.898 54.8837 139.352 53.9521C139.812 53.0204 140.448 52.2974 141.262 51.7829C142.08 51.2684 143.031 51.0119 144.114 51.0134C145.198 51.015 146.145 51.2741 146.957 51.7909C147.774 52.3076 148.408 53.0325 148.86 53.9654C149.317 54.8983 149.545 55.9898 149.543 57.2398C149.541 58.4794 149.311 59.5624 148.851 60.4888C148.397 61.4153 147.76 62.1358 146.942 62.6502C146.129 63.1647 145.18 63.4212 144.097 63.4197ZM144.099 61.7634C144.922 61.7646 145.6 61.5546 146.131 61.1335C146.663 60.7123 147.057 60.1582 147.313 59.4711C147.57 58.7839 147.698 58.0393 147.699 57.2372C147.701 56.4351 147.574 55.6876 147.32 54.9945C147.065 54.3014 146.673 53.741 146.142 53.3132C145.612 52.8853 144.935 52.6708 144.112 52.6697C143.289 52.6685 142.612 52.8811 142.08 53.3075C141.548 53.7338 141.154 54.2932 140.898 54.9855C140.642 55.6779 140.513 56.4251 140.512 57.2272C140.511 58.0292 140.637 58.7742 140.892 59.4621C141.146 60.1499 141.538 60.7052 142.069 61.1278C142.6 61.5504 143.276 61.7623 144.099 61.7634ZM152.343 67.6812L152.366 51.1813L154.147 51.1838L154.145 53.09L154.363 53.0903C154.499 52.8822 154.687 52.6168 154.927 52.2942C155.172 51.9664 155.522 51.6753 155.975 51.4207C156.434 51.1609 157.054 51.0316 157.835 51.0327C158.845 51.0341 159.736 51.2879 160.506 51.7942C161.276 52.3005 161.877 53.0175 162.308 53.9452C162.739 54.8729 162.953 55.9669 162.951 57.2274C162.95 58.4982 162.732 59.5994 162.298 60.5311C161.865 61.4576 161.265 62.1755 160.498 62.6849C159.732 63.189 158.849 63.4404 157.849 63.439C157.078 63.4379 156.461 63.3094 155.998 63.0535C155.535 62.7925 155.178 62.4977 154.929 62.1692C154.679 61.8356 154.487 61.5592 154.352 61.3403L154.196 61.3401L154.187 67.6838L152.343 67.6812ZM154.17 57.1838C154.169 58.09 154.301 58.8897 154.565 59.5828C154.83 60.2707 155.217 60.8103 155.727 61.2016C156.237 61.5877 156.862 61.7813 157.601 61.7824C158.372 61.7834 159.016 61.5812 159.532 61.1757C160.053 60.765 160.445 60.2134 160.706 59.5211C160.973 58.8235 161.106 58.0477 161.108 57.1935C161.109 56.3498 160.98 55.5892 160.72 54.9117C160.466 54.2291 160.079 53.6895 159.558 53.2929C159.043 52.8911 158.395 52.6897 157.614 52.6886C156.864 52.6876 156.234 52.8768 155.723 53.2563C155.212 53.6306 154.825 54.1561 154.564 54.8328C154.303 55.5043 154.171 56.288 154.17 57.1838Z" fill="black"/>
</svg>
