<svg xmlns="http://www.w3.org/2000/svg" width="682.667" height="682.667" version="1.0" viewBox="0 0 512 512"><path fill="#f08" d="M35.9 1.9c-9 2.9-15.6 7.1-22 13.8-6.4 6.9-9.8 12.7-12.3 21.2C.2 41.9 0 62.4 0 256c0 233.8-.4 217.3 5.6 229.2 3.5 6.9 13.4 17 20.1 20.5 12.8 6.8-5.6 6.3 230.3 6.3s217.5.5 230.3-6.3c6.7-3.5 16.6-13.6 20.1-20.5 6-11.9 5.6 4.6 5.6-229.2 0-233.8.4-217.3-5.6-229.2-3.5-6.9-13.4-17-20.1-20.5C473.5-.5 492 0 255.6.1 53.3.1 41.2.2 35.9 1.9zM330.1 110c13.2 2.5 25.5 11.6 30.7 22.8 2.4 5.1 2.7 6.9 2.7 16.2 0 9.9-.2 10.9-3.3 17.3-2.4 4.8-4.8 7.9-8.3 10.6-7.3 5.8-12.4 7.4-21.6 6.9-12.1-.7-20.1-5.7-24.9-15.4-2.4-4.9-2.6-6.3-2.2-13.8.7-13.4 5.6-20 17.4-23.1 11.8-3.1 19.9.1 24.7 9.8 2.5 4.9 3.2 5.7 5.7 5.7 7.7 0 2.6-14.9-7.8-22.4-7.6-5.6-13.8-7.1-28.2-7-13.4.1-23.1 1.6-46 6.9-13.3 3.2-26 5.5-38.2 7l-4.8.6v123.1l19.8-.4c18.4-.4 20.3-.7 28.2-3.3 7.3-2.5 9.3-3.7 14.1-8.5 5-4.9 6-6.7 8.4-14.1 1.8-5.7 2.9-11.8 3.3-18.9l.7-10.5 3.8-.3 3.7-.3V320h-8v-7.4c0-4.1-.7-10.8-1.5-15-3.4-18-10.6-26.6-26.5-31.8-5.4-1.7-9.8-2.2-26.3-2.6l-19.7-.4.2 66.8.3 66.9 18.3.3 18.2.2v7H148v-7h32V129.5l-9.7-2.3c-5.4-1.3-11.5-3.1-13.6-3.9-3.7-1.5-3.9-1.8-3.3-5.1.3-1.9.7-3.7 1-3.9.2-.2 4.6.9 9.8 2.5 16.6 5.3 27.1 6.7 48.8 6.6 21.4-.1 29.4-1.1 54-6.9 14.4-3.4 28.3-6.1 35-6.8 7.6-.8 23-.6 28.1.3z"/></svg>