<?xml version="1.0" encoding="UTF-8" standalone="no"?><svg xmlns:svg="http://www.w3.org/2000/svg" xmlns="http://www.w3.org/2000/svg" xmlns:xlink="http://www.w3.org/1999/xlink" version="1.0" width="64px" height="64px" viewBox="0 0 128 128" xml:space="preserve"><g><path d="M64 0a8 8 0 0 1 8 8c0 4.42-8 48.92-8 48.92S56 12.42 56 8a8 8 0 0 1 8-8z" fill="#d0006e"/><path d="M64 0a8 8 0 0 1 8 8c0 4.42-8 48.92-8 48.92S56 12.42 56 8a8 8 0 0 1 8-8z" fill="#fef8fb" transform="rotate(30 64 64)"/><path d="M64 0a8 8 0 0 1 8 8c0 4.42-8 48.92-8 48.92S56 12.42 56 8a8 8 0 0 1 8-8z" fill="#fbe8f2" transform="rotate(60 64 64)"/><path d="M64 0a8 8 0 0 1 8 8c0 4.42-8 48.92-8 48.92S56 12.42 56 8a8 8 0 0 1 8-8z" fill="#f7d4e7" transform="rotate(90 64 64)"/><path d="M64 0a8 8 0 0 1 8 8c0 4.42-8 48.92-8 48.92S56 12.42 56 8a8 8 0 0 1 8-8z" fill="#f3beda" transform="rotate(120 64 64)"/><path d="M64 0a8 8 0 0 1 8 8c0 4.42-8 48.92-8 48.92S56 12.42 56 8a8 8 0 0 1 8-8z" fill="#efa6cc" transform="rotate(150 64 64)"/><path d="M64 0a8 8 0 0 1 8 8c0 4.42-8 48.92-8 48.92S56 12.42 56 8a8 8 0 0 1 8-8z" fill="#ea8ebf" transform="rotate(180 64 64)"/><path d="M64 0a8 8 0 0 1 8 8c0 4.42-8 48.92-8 48.92S56 12.42 56 8a8 8 0 0 1 8-8z" fill="#e573af" transform="rotate(210 64 64)"/><path d="M64 0a8 8 0 0 1 8 8c0 4.42-8 48.92-8 48.92S56 12.42 56 8a8 8 0 0 1 8-8z" fill="#e15aa1" transform="rotate(240 64 64)"/><path d="M64 0a8 8 0 0 1 8 8c0 4.42-8 48.92-8 48.92S56 12.42 56 8a8 8 0 0 1 8-8z" fill="#dc4193" transform="rotate(270 64 64)"/><path d="M64 0a8 8 0 0 1 8 8c0 4.42-8 48.92-8 48.92S56 12.42 56 8a8 8 0 0 1 8-8z" fill="#d82a86" transform="rotate(300 64 64)"/><path d="M64 0a8 8 0 0 1 8 8c0 4.42-8 48.92-8 48.92S56 12.42 56 8a8 8 0 0 1 8-8z" fill="#d4157a" transform="rotate(330 64 64)"/><animateTransform attributeName="transform" type="rotate" values="0 64 64;30 64 64;60 64 64;90 64 64;120 64 64;150 64 64;180 64 64;210 64 64;240 64 64;270 64 64;300 64 64;330 64 64" calcMode="discrete" dur="1080ms" repeatCount="indefinite"></animateTransform></g></svg>